<svg id="a51e962d-47e8-41b2-b143-8114d894d311" data-name="Layer 1" xmlns="http://www.w3.org/2000/svg" viewBox="0 0 40 40"><defs><style>.a0b9dce5-39b0-46c2-a9d2-939ed425f31c{fill:#eca72b;}.bba5f5f3-0aaa-4d59-94d0-f17e4657212e{fill:#1c1a36;}.f5256413-035a-46bb-8f17-73b6d9ba3498{fill:#eca72a;}</style></defs><title>chill</title><circle class="a0b9dce5-39b0-46c2-a9d2-939ed425f31c" cx="20" cy="20" r="20"/><path class="bba5f5f3-0aaa-4d59-94d0-f17e4657212e" d="M27.45,24.67H6.29a.37.37,0,0,1-.4-.39V11.14a1.5,1.5,0,0,1,1.5-1.49H26.31a1.5,1.5,0,0,1,1.5,1.49V24.28A.36.36,0,0,1,27.45,24.67ZM6.68,23.89H27V11.14a.71.71,0,0,0-.71-.71H7.43a.71.71,0,0,0-.71.71V23.89Z" transform="translate(0 -0.04)"/><path class="bba5f5f3-0aaa-4d59-94d0-f17e4657212e" d="M25.6,22.9H8.14a.37.37,0,0,1-.4-.39V11.81a.37.37,0,0,1,.4-.39H25.6a.37.37,0,0,1,.4.39v10.7A.42.42,0,0,1,25.6,22.9Z" transform="translate(0 -0.04)"/><path class="bba5f5f3-0aaa-4d59-94d0-f17e4657212e" d="M28.51,27.51H5.23a.49.49,0,0,1-.32-.16l-.55-.75a.58.58,0,0,1-.08-.23V24.28a.37.37,0,0,1,.39-.39h24.4a.37.37,0,0,1,.39.39v2.13a.58.58,0,0,1-.08.23l-.55.75A.45.45,0,0,1,28.51,27.51ZM5.42,26.72h22.9l.35-.47V24.67H5.07v1.58Z" transform="translate(0 -0.04)"/><path class="bba5f5f3-0aaa-4d59-94d0-f17e4657212e" d="M19.23,25.93H14.51a.37.37,0,0,1-.39-.31l-.24-1.3A.29.29,0,0,1,14,24a.49.49,0,0,1,.31-.16h5.2a.36.36,0,0,1,.31.16.29.29,0,0,1,.08.31l-.24,1.3A.37.37,0,0,1,19.23,25.93Zm-4.41-.78h4.1l.07-.51H14.75Z" transform="translate(0 -0.04)"/><path class="bba5f5f3-0aaa-4d59-94d0-f17e4657212e" d="M29.27,30.26h3.58a1.43,1.43,0,0,0,1.43-1.43V27.76h.36a1.08,1.08,0,0,0,1.08-1.08V24.89a.35.35,0,0,0-.36-.35H34.29V23.46a.36.36,0,0,0-.36-.36H28.2a.36.36,0,0,0-.36.36h0v5.37A1.43,1.43,0,0,0,29.27,30.26Zm5.73-5v1.43a.36.36,0,0,1-.36.36h-.36V25.25Z" transform="translate(0 -0.04)"/><path class="f5256413-035a-46bb-8f17-73b6d9ba3498" d="M29.27,27.4a.36.36,0,0,0,.36-.36h0V24.89a.36.36,0,0,0-.72,0V27a.36.36,0,0,0,.36.36Z" transform="translate(0 -0.04)"/><path class="f5256413-035a-46bb-8f17-73b6d9ba3498" d="M29.27,28.83a.36.36,0,0,0,.36-.35h0v-.37a.36.36,0,0,0-.72,0v.37a.36.36,0,0,0,.36.35Z" transform="translate(0 -0.04)"/><path class="bba5f5f3-0aaa-4d59-94d0-f17e4657212e" d="M28.71,22a.36.36,0,0,0,.72,0,1.24,1.24,0,0,0-.23-.73.49.49,0,0,1-.11-.35.47.47,0,0,1,.11-.34,1.29,1.29,0,0,0,.23-.73.36.36,0,0,0-.72,0,.54.54,0,0,1-.12.34,1.21,1.21,0,0,0-.22.73,1.19,1.19,0,0,0,.22.73A.55.55,0,0,1,28.71,22Z" transform="translate(0 -0.04)"/><path class="bba5f5f3-0aaa-4d59-94d0-f17e4657212e" d="M30.52,22a.36.36,0,0,0,.72,0A1.24,1.24,0,0,0,31,21.3a.55.55,0,0,1-.12-.35.52.52,0,0,1,.12-.34,1.29,1.29,0,0,0,.23-.73.36.36,0,0,0-.72,0,.6.6,0,0,1-.11.34,1.27,1.27,0,0,0,0,1.46A.61.61,0,0,1,30.52,22Z" transform="translate(0 -0.04)"/><path class="bba5f5f3-0aaa-4d59-94d0-f17e4657212e" d="M32.31,22A.36.36,0,0,0,33,22a1.24,1.24,0,0,0-.23-.73.55.55,0,0,1-.12-.35.52.52,0,0,1,.12-.34,1.29,1.29,0,0,0,.23-.73.36.36,0,1,0-.72,0,.48.48,0,0,1-.11.34,1.27,1.27,0,0,0,0,1.46A.49.49,0,0,1,32.31,22Z" transform="translate(0 -0.04)"/></svg>