<svg id="ea75db60-9990-49e1-86d0-3b8e86d13e62" data-name="Layer 1" xmlns="http://www.w3.org/2000/svg" viewBox="0 0 40 40"><defs><style>.f3723913-e090-4841-aeff-35d87dc0814e{fill:#eca72b;}.ee50205f-bf55-49a0-ab5d-1cc1a6e525f7{fill:#1c1a36;}</style></defs><title>combat</title><circle class="f3723913-e090-4841-aeff-35d87dc0814e" cx="20" cy="20" r="20"/><path class="ee50205f-bf55-49a0-ab5d-1cc1a6e525f7" d="M20.43,17h1a3.82,3.82,0,0,0,3.82-3.82V13a.31.31,0,0,0-.32-.3.32.32,0,0,0-.3.3v.1a3.2,3.2,0,0,1-3.2,3.2h-1a.3.3,0,0,0-.3.32.31.31,0,0,0,.3.3Z" transform="translate(0 0)"/><path class="ee50205f-bf55-49a0-ab5d-1cc1a6e525f7" d="M12.43,17.45a5,5,0,0,0-1,3.67,6.71,6.71,0,0,0,1.11,3.15,8.19,8.19,0,0,1,1.22,4.05.31.31,0,0,0,.31.31H26a.31.31,0,0,0,.31-.31V25.13a11.11,11.11,0,0,1,.86-4.3L27.85,19a10.21,10.21,0,0,0,.79-3.93v-.95a6.44,6.44,0,0,0-6.43-6.43H18a6.44,6.44,0,0,0-6.43,6.43v.56a2.25,2.25,0,0,0,1.45,2.1A4.1,4.1,0,0,0,12.43,17.45ZM16,21.07h1.53a2.37,2.37,0,0,0,0-4.73H13.75a1.61,1.61,0,0,1-1.53-1.61v-.57A5.81,5.81,0,0,1,18,8.35h4.18A5.81,5.81,0,0,1,28,14.16v.94a9.39,9.39,0,0,1-.73,3.7l-.74,1.79a12,12,0,0,0-.9,4.53V28H14.33A8.86,8.86,0,0,0,13,23.92a6.08,6.08,0,0,1-1-2.86A4.11,4.11,0,0,1,13.92,17h3.64a1.75,1.75,0,1,1,0,3.49H16a.31.31,0,0,0,0,.62Z" transform="translate(0 0)"/><path class="ee50205f-bf55-49a0-ab5d-1cc1a6e525f7" d="M13.9,28.94V31a1.51,1.51,0,0,0,.53,1,1.25,1.25,0,0,0,.72.23h9.6a1.69,1.69,0,0,0,.73-.3,1.66,1.66,0,0,0,.62-.89V28.94Z" transform="translate(0 0)"/></svg>