<svg id="Layer_1" data-name="Layer 1" xmlns="http://www.w3.org/2000/svg" viewBox="0 0 100 100"><defs><style>.cls-1{fill-opacity:0;}.cls-2{fill:#fff;fill-rule:evenodd;}</style></defs><title>dribble</title><rect class="cls-1" width="100" height="100"/><path class="cls-2" d="M50,0a50,50,0,1,0,50,50A50,50,0,0,0,50,0ZM83,23.05a42.53,42.53,0,0,1,9.65,26.57c-1.41-.27-15.51-3.14-29.72-1.36-.32-.7-.6-1.46-.92-2.22-.87-2.06-1.84-4.17-2.82-6.18C75,33.46,82.1,24.24,83,23.05ZM50,7.38A42.61,42.61,0,0,1,78.31,18.11c-.76,1.09-7.21,9.71-22.4,15.4A231,231,0,0,0,40,8.51,43.37,43.37,0,0,1,50,7.38Zm-18.17,4A270.23,270.23,0,0,1,47.67,36.06,160,160,0,0,1,8.19,41.27,42.89,42.89,0,0,1,31.83,11.39ZM7.27,50.05v-1.3a155.69,155.69,0,0,0,43.87-6.07c1.25,2.39,2.38,4.83,3.47,7.27l-1.68.48C30.91,57.54,19.2,77,18.22,78.58A42.6,42.6,0,0,1,7.27,50.05ZM50,92.73a42.39,42.39,0,0,1-26.19-9c.76-1.57,9.43-18.27,33.51-26.68.11,0,.16,0,.27-.11A176.38,176.38,0,0,1,66.7,89.32,42,42,0,0,1,50,92.73Zm23.81-7.32A184.25,184.25,0,0,0,65.51,55a62.26,62.26,0,0,1,26.57,1.84A42.3,42.3,0,0,1,73.81,85.41Z"/></svg>