<svg id="Layer_1" data-name="Layer 1" xmlns="http://www.w3.org/2000/svg" viewBox="0 0 100 100"><defs><style>.cls-1{fill:#fff;}</style></defs><title>link-01</title><path class="cls-1" d="M81.25,0H18.75A18.76,18.76,0,0,0,0,18.75v62.5A18.76,18.76,0,0,0,18.75,100h62.5A18.76,18.76,0,0,0,100,81.25V18.75A18.76,18.76,0,0,0,81.25,0ZM30.92,84.89H15.38l-.09-46.52H30.83Zm-8.16-52.6h-.09c-5.08,0-8.35-3.5-8.35-7.86s3.38-7.84,8.55-7.84,8.34,3.38,8.44,7.84S28,32.29,22.76,32.29Zm62,52.6H69.11V59.62c0-6.12-1.62-10.28-7.09-10.28-4.18,0-6.43,2.81-7.51,5.53A10,10,0,0,0,54,58.55V84.89H38.25l-.09-46.52H53.91L54,44.94c2-3.11,5.36-7.51,13.38-7.51,10,0,17.39,6.49,17.39,20.44v27Z"/></svg>