<svg id="fbe9c128-cc56-41bc-a8eb-a7d5fed4cfa1" data-name="Layer 1" xmlns="http://www.w3.org/2000/svg" viewBox="0 0 40 40"><defs><style>.b162d344-1428-4e64-9f42-5f6d12a70af8{fill:#eca72b;}.b89be951-5f62-48b7-854f-6fbe3faa5a7f{fill:#1c1a36;}.a654d016-4006-43fd-bef3-998658171b93{fill:none;stroke:#1c1a36;stroke-miterlimit:10;}</style></defs><title>music</title><circle class="b162d344-1428-4e64-9f42-5f6d12a70af8" cx="20" cy="20" r="20"/><path class="b89be951-5f62-48b7-854f-6fbe3faa5a7f" d="M21.55,17.92V7a1.29,1.29,0,0,0-.39-.91,1.22,1.22,0,0,0-.94-.3L10,7.14A1.19,1.19,0,0,0,9,8.31V17.2a3.84,3.84,0,0,0-1.37-.26,2.71,2.71,0,0,0-3,2.41,2.71,2.71,0,0,0,3,2.41,2.72,2.72,0,0,0,3-2.41V11.67L20,10.43v5.34a3.84,3.84,0,0,0-1.37-.26,2.71,2.71,0,0,0-3,2.41,2.71,2.71,0,0,0,3,2.41A2.65,2.65,0,0,0,21.55,17.92Z" transform="translate(0 0)"/><path class="a654d016-4006-43fd-bef3-998658171b93" d="M24.28,20.82a.79.79,0,0,0-.9.64L21.9,30.22a3.76,3.76,0,0,0-1.3-.48,2.71,2.71,0,0,0-3.33,1.88,2.72,2.72,0,0,0,2.52,2.87,2.72,2.72,0,0,0,3.33-1.88L25,21.72A.85.85,0,0,0,24.28,20.82Z" transform="translate(0 0)"/><path class="a654d016-4006-43fd-bef3-998658171b93" d="M31.5,7.32a.79.79,0,0,0-.57.95l2.18,8.62a3.86,3.86,0,0,0-1.39.08A2.73,2.73,0,0,0,29.43,20a2.73,2.73,0,0,0,3.47,1.61,2.71,2.71,0,0,0,2.28-3.07L32.48,7.91A.85.85,0,0,0,31.5,7.32Z" transform="translate(0 0)"/></svg>