<svg id="bbfac6a6-d1ed-4268-a4c9-7db8ccc7806a" data-name="Layer 1" xmlns="http://www.w3.org/2000/svg" viewBox="0 0 40 40"><defs><style>.f11c09f6-ba1f-471f-b4ef-9ae17a864824{fill:#eca72b;}.b8b5aea0-da5e-41c6-8311-6fe160d679cd{fill:#1c1a36;}.a4c1c930-fdc6-4929-b08d-30bbea21ca4e,.f4364c17-34e3-4395-be85-3de0e62e2245,.fba9852d-3ec1-428a-8e09-43842ce985f2{fill:none;stroke:#1c1a36;stroke-miterlimit:10;}.fba9852d-3ec1-428a-8e09-43842ce985f2{stroke-width:0.25px;}.a4c1c930-fdc6-4929-b08d-30bbea21ca4e{stroke-width:0.75px;}</style></defs><title>skii</title><circle class="f11c09f6-ba1f-471f-b4ef-9ae17a864824" cx="20" cy="20" r="20"/><polygon class="b8b5aea0-da5e-41c6-8311-6fe160d679cd" points="25.52 18.79 24.81 37.8 24.77 18.78 25.52 18.79"/><rect class="b8b5aea0-da5e-41c6-8311-6fe160d679cd" x="24.51" y="16.37" width="1.38" height="2.42" rx="0.49"/><path class="fba9852d-3ec1-428a-8e09-43842ce985f2" d="M24.79,16.75c-.06-.16-.66-.13-1.15.06-.83.32-1.54,1.19-1.34,1.63a.56.56,0,0,0,.43.27c.44,0,.6-.53,1.56-1.41C24.64,17,24.83,16.85,24.79,16.75Z" transform="translate(0 -0.06)"/><polygon class="b8b5aea0-da5e-41c6-8311-6fe160d679cd" points="28.37 19.06 26.42 37.98 27.62 19 28.37 19.06"/><rect class="b8b5aea0-da5e-41c6-8311-6fe160d679cd" x="27.37" y="16.67" width="1.38" height="2.42" rx="0.49" transform="translate(54.18 38.43) rotate(-174.24)"/><path class="fba9852d-3ec1-428a-8e09-43842ce985f2" d="M28.56,17c.07-.15.67-.06,1.14.18.79.4,1.41,1.34,1.17,1.76a.54.54,0,0,1-.46.22c-.44,0-.54-.58-1.4-1.55C28.69,17.28,28.51,17.13,28.56,17Z" transform="translate(0 -0.06)"/><path class="a4c1c930-fdc6-4929-b08d-30bbea21ca4e" d="M9.2,6.69l4.16,13.39-.08.62.35.63L18.1,38.27l2.12-.65L15.64,20.87,12.1,5.79A1.69,1.69,0,0,0,11.42,5a1.67,1.67,0,0,0-.59-.22,1.36,1.36,0,0,0-.63,0,1.52,1.52,0,0,0-.65.35,2.42,2.42,0,0,0-.25.51A2.27,2.27,0,0,0,9.2,6.69Z" transform="translate(0 -0.06)"/><path class="a4c1c930-fdc6-4929-b08d-30bbea21ca4e" d="M14.7,5.12l3.16,13.66-.12.62.3.65,3.21,17.23,2.17-.49-3.33-17L17.66,4.44a1.76,1.76,0,0,0-.61-.82,1.86,1.86,0,0,0-.58-.26,1.45,1.45,0,0,0-.63,0,1.49,1.49,0,0,0-.67.31,2,2,0,0,0-.29.49A2.3,2.3,0,0,0,14.7,5.12Z" transform="translate(0 -0.06)"/><polyline class="f4364c17-34e3-4395-be85-3de0e62e2245" points="13.36 20.01 15.32 19.43 15.51 20.23 13.36 20.78"/><polyline class="f4364c17-34e3-4395-be85-3de0e62e2245" points="17.75 18.86 19.71 18.29 19.9 19.08 17.75 19.63"/><path class="b8b5aea0-da5e-41c6-8311-6fe160d679cd" d="M23.9,36.34A1.2,1.2,0,0,1,25,36.12a1.23,1.23,0,0,1,.78.75,1.21,1.21,0,0,1-1.05.22A1.23,1.23,0,0,1,23.9,36.34Z" transform="translate(0 -0.06)"/><path class="b8b5aea0-da5e-41c6-8311-6fe160d679cd" d="M27.4,37.47a1.19,1.19,0,0,1-1.06.18,1.18,1.18,0,0,1-.74-.77,1.19,1.19,0,0,1,1.06-.18A1.23,1.23,0,0,1,27.4,37.47Z" transform="translate(0 -0.06)"/></svg>