<svg id="f08cc6b4-8da8-46aa-8a71-dff67b8bacf3" data-name="Layer 1" xmlns="http://www.w3.org/2000/svg" viewBox="0 0 40 40"><defs><style>.aa564542-8c6e-4c74-bb42-c31f52b4c713{fill:#eca72b;}.aeaa837e-6507-401b-85a6-fa252927de4b{fill:#1c1a36;}</style></defs><title>travel</title><circle class="aa564542-8c6e-4c74-bb42-c31f52b4c713" cx="20" cy="20" r="20"/><path class="aeaa837e-6507-401b-85a6-fa252927de4b" d="M26.59,9.1H23.34V8A3.37,3.37,0,0,0,20,4.64h0A3.35,3.35,0,0,0,16.66,8V9.1H13.41A4.31,4.31,0,0,0,9.1,13.41V30.72A4.31,4.31,0,0,0,13.41,35H26.59a4.31,4.31,0,0,0,4.31-4.31V13.41A4.31,4.31,0,0,0,26.59,9.1ZM17.45,8a2.6,2.6,0,0,1,.66-1.7A2.55,2.55,0,0,1,20,5.43h0a2.55,2.55,0,0,1,1.89.85A2.6,2.6,0,0,1,22.55,8V9.1h-.86V8A1.72,1.72,0,0,0,20,6.29h0A1.72,1.72,0,0,0,18.31,8V9.1h-.86ZM20.9,9.1H19.09V8a.94.94,0,0,1,.24-.61.87.87,0,0,1,.66-.3h0a.91.91,0,0,1,.67.3,1,1,0,0,1,.23.6Zm6.6,22.56a4.35,4.35,0,0,1-.86,2.58H13.36a4.35,4.35,0,0,1-.86-2.58V23.75a4.32,4.32,0,0,1,4.32-4.31h6.36a4.32,4.32,0,0,1,4.32,4.31Zm2.62-.94a3.52,3.52,0,0,1-2.45,3.35,5,5,0,0,0,.61-2.41V23.75a5.11,5.11,0,0,0-5.1-5.1H16.82a5.11,5.11,0,0,0-5.1,5.1v7.91a5,5,0,0,0,.61,2.41,3.52,3.52,0,0,1-2.45-3.35V13.41a3.54,3.54,0,0,1,3.53-3.53H26.59a3.54,3.54,0,0,1,3.53,3.53V30.72Z" transform="translate(0 0)"/><path class="aeaa837e-6507-401b-85a6-fa252927de4b" d="M25.06,11.37H14.94a3.4,3.4,0,0,0-3.4,3.4v4.06h.78V14.77a2.63,2.63,0,0,1,2.62-2.62H25.06a2.63,2.63,0,0,1,2.62,2.62v4.06h.78V14.77A3.4,3.4,0,0,0,25.06,11.37Z" transform="translate(0 0)"/><rect class="aeaa837e-6507-401b-85a6-fa252927de4b" x="17.76" y="13.24" width="4.49" height="2.75" rx="0.58"/><rect class="aeaa837e-6507-401b-85a6-fa252927de4b" x="12.32" y="29.97" width="15.51" height="4.28" rx="1.12"/></svg>