<?xml version="1.0" standalone="no"?>
<!DOCTYPE svg PUBLIC "-//W3C//DTD SVG 20010904//EN"
 "http://www.w3.org/TR/2001/REC-SVG-20010904/DTD/svg10.dtd">
<svg version="1.0" xmlns="http://www.w3.org/2000/svg"
 width="292.000000pt" height="292.000000pt" viewBox="0 0 292.000000 292.000000"
 preserveAspectRatio="xMidYMid meet">
<metadata>
Created by potrace 1.11, written by Peter Selinger 2001-2013
</metadata>
<g transform="translate(0.000000,292.000000) scale(0.100000,-0.100000)"
fill="#000000" stroke="none">
<path d="M171 2430 c-4 -3 -7 -431 -6 -952 l0 -948 252 0 c234 0 253 1 254 18
0 9 1 169 2 356 l2 338 284 2 284 1 1 188 c1 104 -2 196 -6 206 -6 18 -23 19
-245 19 -131 0 -257 1 -280 1 l-42 1 1 175 c1 151 3 175 17 179 9 2 145 4 304
4 158 -1 290 1 293 5 4 4 8 290 5 392 -1 20 -7 20 -557 20 -306 0 -559 -2
-563 -5z"/>
<path d="M1669 2395 c0 -51 0 -1836 0 -1852 1 -9 21 -13 69 -13 l67 0 0 392 0
392 215 2 c221 1 297 10 410 45 179 56 304 170 355 324 22 67 29 115 28 210
-2 312 -170 486 -513 531 -30 4 -184 8 -342 8 l-288 2 -1 -41z m541 -89 c41
-2 98 -10 125 -16 28 -6 57 -13 66 -15 38 -8 118 -56 158 -95 149 -145 148
-473 -1 -613 -54 -50 -120 -83 -220 -108 -69 -17 -122 -21 -309 -24 l-226 -4
0 439 0 439 46 3 c60 4 265 1 361 -6z"/>
</g>
</svg>
